<svg version="1.1" id="Layer_1" xmlns="http://www.w3.org/2000/svg" xmlns:xlink="http://www.w3.org/1999/xlink" x="0px" y="0px"
	 width="100%" viewBox="0 0 240 288" enable-background="new 0 0 240 288" xml:space="preserve">
<path fill="#000000" opacity="1.000000" stroke="none" 
	d="
M208.744629,221.926239 
	C182.792084,234.946838 160.192245,228.731476 139.290054,210.915634 
	C139.538208,231.782410 133.986130,250.787811 122.757378,268.102570 
	C120.216339,272.020874 117.360374,275.713623 112.689911,277.445831 
	C109.308273,278.700043 105.609047,278.816559 103.324341,276.299103 
	C101.064560,273.809113 99.875702,270.116608 101.288048,266.471741 
	C102.429016,263.527283 103.554825,260.513306 105.184647,257.832489 
	C113.894104,243.506805 118.318771,227.749283 121.277824,210.715652 
	C117.170326,214.521637 113.566383,217.993011 109.823082,221.306976 
	C92.636292,236.522446 72.560890,245.671875 49.923641,248.917374 
	C43.546970,249.831589 36.954441,249.280701 30.460434,249.318146 
	C27.407856,249.335754 25.998707,247.497742 25.692488,244.622650 
	C25.363461,241.533401 26.249138,238.695129 27.444298,235.911575 
	C32.235687,224.752197 39.816708,215.834244 49.500832,208.653061 
	C52.842319,206.175217 56.362782,203.938721 60.243050,201.290634 
	C49.288883,196.240540 39.641243,189.573776 32.344017,180.253510 
	C15.004803,158.107300 9.367783,133.421219 19.433462,106.659279 
	C25.673450,90.068832 38.697659,80.201370 56.012997,76.521126 
	C60.797108,75.504303 62.657742,73.787468 63.203041,68.587456 
	C64.947380,51.953259 73.061325,38.801506 87.033401,29.395277 
	C106.178314,16.506618 126.958786,12.072718 149.282288,18.606972 
	C169.102280,24.408430 182.566010,37.632694 189.873459,56.908188 
	C191.175232,60.341957 192.701462,61.647526 196.519791,62.040314 
	C216.053925,64.049759 227.765900,76.322166 235.344437,93.241295 
	C246.582138,118.329514 232.814148,157.435104 208.047256,171.412659 
	C197.724380,177.238495 186.979416,178.370514 176.067062,172.763702 
	C174.300720,171.856155 172.073212,171.086197 172.742828,168.494751 
	C173.388901,165.994431 175.683640,166.661545 177.366943,166.860474 
	C193.906799,168.815384 205.321960,160.903458 213.318695,147.488235 
	C220.955978,134.676025 226.124237,120.893509 222.656799,105.631882 
	C219.715942,92.687935 212.155273,83.105560 199.408478,78.347580 
	C193.765121,76.241096 192.528534,77.237473 191.407578,83.238350 
	C187.667709,103.259560 175.583282,116.881996 158.074768,126.197876 
	C155.926651,127.340836 153.368744,127.891335 150.931381,128.269135 
	C147.699814,128.770035 144.950912,127.726875 143.622330,124.420387 
	C142.386002,121.343445 143.457733,118.803024 145.928192,116.918968 
	C149.634949,114.092049 153.533569,111.517220 157.250458,108.702934 
	C168.354294,100.295540 175.873993,89.702606 176.772034,75.359970 
	C177.561295,62.754532 172.195435,52.709278 162.984497,44.601051 
	C147.965332,31.379925 130.412857,29.179379 111.931824,34.572002 
	C94.454681,39.671707 80.554237,49.803371 72.891922,67.037178 
	C71.963936,69.124397 70.792305,71.203598 71.096565,74.160988 
	C79.860374,75.354797 87.959221,78.381081 94.814949,84.337090 
	C100.689682,89.440849 105.251091,95.531761 108.963585,102.287468 
	C110.088554,104.334595 110.931534,106.592522 108.599503,108.630913 
	C106.237053,110.695869 103.939697,110.072189 101.775993,108.508904 
	C96.243721,104.511818 90.691559,100.531876 85.320198,96.324402 
	C69.335251,83.803131 41.259579,95.592316 34.513229,112.829239 
	C28.869858,127.248039 29.483658,141.451141 34.371277,155.749435 
	C40.021706,172.279236 49.818501,185.498840 65.388542,194.024612 
	C67.793938,195.341766 70.308037,196.400421 73.021202,195.560059 
	C84.747482,191.927994 96.592377,190.089844 109.744255,193.442383 
	C104.628868,182.438416 104.231461,171.707169 104.681656,160.868561 
	C105.108368,150.595413 107.421585,140.768326 111.927544,131.517334 
	C114.841995,125.533791 118.227913,125.258049 122.126503,130.587631 
	C131.435532,143.313583 139.212799,156.800140 142.793076,172.371063 
	C143.604752,175.901154 143.233398,179.672150 145.007507,183.272324 
	C149.222748,182.395782 153.377548,181.254272 157.609268,180.697327 
	C183.194092,177.330124 201.252151,190.027817 216.279312,208.717957 
	C219.651932,212.912674 218.946426,215.026367 214.506592,218.187897 
	C212.744247,219.442810 210.882614,220.558289 208.744629,221.926239 
z"/>
</svg>