<svg version="1.1" id="Layer_1" xmlns="http://www.w3.org/2000/svg" xmlns:xlink="http://www.w3.org/1999/xlink" x="0px" y="0px"
	 width="100%" viewBox="0 0 929 268" enable-background="new 0 0 929 268" xml:space="preserve">
<path fill="#FEFEFE" opacity="1.000000" stroke="none" 
	d="
M126.000000,0.999999 
	C393.940857,1.000000 661.881714,1.000000 929.911255,1.000000 
	C929.911255,90.254410 929.911255,179.508926 929.911255,269.000000 
	C654.306519,269.000000 378.612976,269.000000 102.592194,268.676788 
	C108.712845,265.993408 112.604050,260.743317 114.952026,254.949890 
	C118.867470,245.288864 122.240463,235.327423 124.823524,225.231903 
	C126.981247,216.798721 127.680908,207.992508 129.108459,198.823685 
	C139.773422,210.853302 151.685532,219.963257 168.207169,219.618057 
	C184.504395,219.277542 197.081848,211.010635 208.292145,200.045654 
	C187.423767,173.406097 164.896759,166.016190 132.231949,174.958344 
	C131.578369,151.387787 123.111038,131.249008 106.067642,114.104401 
	C90.741173,136.816330 93.072617,160.399902 98.941528,183.005295 
	C86.569412,183.895508 74.509735,184.476517 62.529758,185.786438 
	C58.533852,186.223343 55.081455,186.234528 51.559490,184.280090 
	C30.108517,172.376373 19.040182,153.307083 14.969312,129.922714 
	C12.198587,114.006775 17.303419,99.886230 28.106947,88.054527 
	C41.761890,73.100052 60.216896,71.984589 75.753410,84.885002 
	C78.694748,87.327278 81.331505,90.133202 84.167427,92.706726 
	C86.013847,94.382309 87.785187,96.279884 89.936592,97.429916 
	C91.311798,98.165024 93.803841,98.396133 94.905876,97.608658 
	C95.995918,96.829758 96.727921,94.236702 96.280396,92.880455 
	C95.202599,89.614090 93.706505,86.351219 91.736008,83.537308 
	C83.299820,71.490265 72.020462,63.949501 56.977333,63.014088 
	C64.161339,28.478891 103.310287,7.654677 137.649536,19.465313 
	C178.609833,33.553188 175.998108,75.519806 152.439606,95.032318 
	C147.839233,98.842621 142.685623,101.977684 137.927124,105.607620 
	C135.780182,107.245384 133.976517,109.333145 132.017105,111.216743 
	C134.685760,112.600372 137.245438,114.322853 140.067215,115.230316 
	C141.566299,115.712410 143.688873,115.148453 145.242279,114.432449 
	C163.078064,106.211502 174.794937,92.683029 180.004578,73.685539 
	C180.996780,70.067398 181.597473,66.341896 182.365036,62.730652 
	C200.138733,63.760086 212.359436,73.770393 215.652710,90.794487 
	C216.929001,97.391991 217.250336,104.452606 216.467697,111.121628 
	C213.165131,139.262527 194.732483,155.650085 166.334076,156.582611 
	C165.006012,156.626236 163.713440,157.751068 161.041229,159.019257 
	C164.648666,160.381271 166.704361,161.366348 168.868927,161.942169 
	C189.264587,167.367935 211.567139,156.884232 222.116714,136.927597 
	C228.255630,125.314613 230.532043,112.798088 230.524597,99.790588 
	C230.508453,71.581024 213.851227,52.983368 185.743088,49.935669 
	C183.063324,49.645111 181.756714,48.875488 180.891174,46.140980 
	C173.295731,22.144993 156.401382,8.466143 132.332458,2.879744 
	C130.191544,2.382836 128.109421,1.632584 126.000000,0.999999 
M519.423157,86.111557 
	C509.671906,96.186989 498.459839,96.857109 486.997223,91.243774 
	C489.986969,128.775040 492.757019,166.251495 481.389191,202.971130 
	C496.242950,202.971130 510.774353,202.971130 525.791687,202.971130 
	C519.167542,185.747040 516.848083,168.436279 517.713440,150.584549 
	C518.719177,129.838181 519.374756,109.074738 520.139587,88.317123 
	C520.173096,87.408287 519.781677,86.483795 519.706482,85.570580 
	C519.706482,85.570580 519.602844,85.684059 519.602844,85.684059 
	C519.602844,85.684059 519.807861,85.533638 519.423157,86.111557 
M328.245880,83.741966 
	C330.939484,81.138985 333.633057,78.535995 336.326630,75.933014 
	C336.147552,75.545563 335.968445,75.158119 335.789337,74.770668 
	C322.578247,74.770668 309.367157,74.770668 295.884644,74.770668 
	C296.734100,77.861000 297.956604,81.144966 298.458374,84.535599 
	C298.803131,86.865295 298.913391,89.785797 297.816498,91.684120 
	C289.570770,105.954544 281.048676,120.066971 272.445190,134.126114 
	C271.669434,135.393784 269.710632,135.937500 268.301270,136.817413 
	C267.865845,136.471619 267.430420,136.125809 266.994995,135.780014 
	C267.459869,125.660110 267.395844,115.479980 268.539398,105.437363 
	C269.667389,95.531227 272.017487,85.764259 273.825775,75.966827 
	C261.532379,75.966827 248.308456,75.966827 235.774170,75.966827 
	C243.087173,118.221619 244.374756,160.068985 234.720093,201.855209 
	C248.356613,201.855209 262.543304,201.855209 277.037537,201.855209 
	C271.505615,183.764633 267.703674,165.814255 267.085907,147.417267 
	C272.144653,145.895386 275.516937,147.385559 278.309845,151.181412 
	C281.562836,155.602615 285.356628,159.629715 288.554291,164.087112 
	C296.505310,175.170471 303.352112,186.726593 302.184631,201.198883 
	C302.152039,201.602936 302.582245,202.044327 302.789429,202.454025 
	C318.610718,202.454025 334.331055,202.454025 350.441681,202.454025 
	C350.033783,201.489670 349.880188,200.863800 349.541412,200.363297 
	C334.699402,178.436172 319.880524,156.493011 304.886627,134.670135 
	C303.986084,133.359451 301.699097,132.411469 300.011322,132.337067 
	C293.796051,132.063110 287.561401,132.228287 281.334015,132.228287 
	C281.008850,131.682999 280.683685,131.137711 280.358521,130.592422 
	C296.153290,115.141991 311.948029,99.691559 328.245880,83.741966 
M470.065979,188.289780 
	C469.399048,169.485031 468.411041,150.684631 468.156464,131.874298 
	C467.907104,113.451019 466.337158,94.807259 473.632965,77.098259 
	C473.726898,76.870224 473.493286,76.507263 473.332764,75.910706 
	C463.996460,75.910706 454.589630,75.910706 444.973267,75.910706 
	C455.500977,88.572495 460.918152,100.184601 460.008179,120.107079 
	C459.522125,130.748306 459.932495,141.430069 459.911835,152.093491 
	C459.909149,153.471130 459.747437,154.848495 459.595581,157.224884 
	C448.034851,144.548065 437.278687,132.529572 426.272491,120.744591 
	C414.033752,107.639832 402.905304,93.848999 396.321381,76.884003 
	C395.861115,75.698059 394.071350,74.261742 392.880127,74.243721 
	C380.235687,74.052490 367.587219,74.125107 355.455444,74.125107 
	C357.844696,117.225273 364.979401,160.024338 353.859772,202.750793 
	C364.485748,202.750793 374.542694,202.750793 384.881226,202.750793 
	C384.533783,202.018585 384.403931,201.558304 384.134552,201.204132 
	C373.100403,186.696442 367.275940,170.418167 367.340240,152.108368 
	C367.379425,140.945160 367.347656,129.781723 367.347717,118.618378 
	C367.347748,113.206093 367.347717,107.793816 367.347717,102.381531 
	C367.820190,102.123383 368.292633,101.865234 368.765106,101.607079 
	C376.229095,109.778809 384.538300,117.337593 390.994293,126.240295 
	C408.476562,150.348267 425.155975,175.037994 442.217438,199.452591 
	C443.272003,200.961716 444.833252,203.157730 446.232788,203.214661 
	C454.828857,203.564301 463.446167,203.389847 472.187744,203.389847 
	C471.453400,198.315247 470.794159,193.759918 470.065979,188.289780 
M783.023804,137.500366 
	C783.023804,130.970657 783.023804,124.440948 783.023804,117.911240 
	C771.458740,134.546906 756.091309,139.647995 737.099426,135.563766 
	C737.099426,122.841888 736.820801,110.021156 737.240845,97.223366 
	C737.401733,92.321167 738.985474,87.423492 740.309265,82.631058 
	C740.643372,81.421448 742.392090,79.880981 743.623962,79.750526 
	C759.009094,78.121315 772.953430,81.528763 783.699585,93.255791 
	C789.404175,99.481140 794.184875,106.553429 799.376343,113.248253 
	C800.084717,114.161766 800.757019,115.103249 801.143372,115.623871 
	C802.236816,102.486641 803.332275,89.324791 804.422913,76.221199 
	C770.668213,76.221199 736.805054,76.221199 703.011719,76.221199 
	C711.532898,97.002502 707.259216,118.568382 708.270752,139.649506 
	C709.300720,161.115799 707.538025,182.406372 700.778320,202.946884 
	C715.474182,202.946884 729.337463,202.946884 743.288757,202.946884 
	C736.732056,183.252289 736.731628,163.310593 736.194946,142.904709 
	C743.532043,142.904709 750.373779,142.411255 757.098816,143.084061 
	C761.342163,143.508606 765.994507,144.852737 769.410278,147.271500 
	C773.657043,150.278717 776.859924,154.782013 780.409790,158.732483 
	C781.086975,159.486038 781.281555,160.673248 781.698792,161.660400 
	C782.140442,161.261261 782.582153,160.862122 783.023804,160.462982 
	C783.023804,153.142044 783.023804,145.821091 783.023804,137.500366 
M849.375549,190.819138 
	C848.542297,194.841095 847.709045,198.863052 846.833252,203.090302 
	C860.811584,203.090302 874.344910,203.090302 886.780212,203.090302 
	C885.223877,187.549225 883.561218,172.221451 882.260254,156.863037 
	C882.005737,153.858063 882.669128,150.555603 883.728210,147.693420 
	C893.206482,122.076385 907.562866,99.423401 925.864868,79.214844 
	C926.890198,78.082748 927.841492,76.883575 929.002808,75.507492 
	C915.006287,75.507492 901.686096,75.507492 888.578552,75.507492 
	C898.972839,101.470024 889.422424,124.564407 879.688049,149.094757 
	C872.998779,136.419449 866.867188,125.000626 860.924438,113.484360 
	C854.854492,101.721680 850.364441,89.510162 852.004272,75.887527 
	C836.647339,75.887527 821.910400,75.887527 806.741943,75.887527 
	C807.410278,76.973724 807.789307,77.682335 808.253113,78.330269 
	C823.321350,99.380661 835.264709,122.214272 847.259033,145.087769 
	C853.149719,156.321442 854.346680,167.288666 851.678711,179.211288 
	C850.879333,182.783554 850.275330,186.399536 849.375549,190.819138 
M550.500244,74.904465 
	C543.748657,74.904465 536.997131,74.904465 530.447998,74.904465 
	C531.934021,89.798271 533.353210,104.021828 534.628113,116.799896 
	C538.027832,108.523285 541.335938,99.140633 545.709717,90.284294 
	C548.670898,84.288361 554.229736,80.538170 561.032104,79.266899 
	C567.625671,78.034676 569.001282,78.954613 570.016968,85.488052 
	C574.509766,114.389229 573.226318,143.273285 569.509521,172.125092 
	C568.178894,182.453979 566.567261,192.746658 565.072876,203.132446 
	C579.308411,203.132446 593.059570,203.132446 606.691650,203.132446 
	C597.322876,161.929184 600.974915,120.672676 602.851807,79.431274 
	C612.662598,78.222580 620.086853,81.077354 625.234863,88.257370 
	C628.490112,92.797462 630.955688,97.989326 633.210571,103.136337 
	C635.361267,108.045555 636.779480,113.275665 638.352844,117.876793 
	C640.184692,103.899834 642.055359,89.626938 643.984985,74.904106 
	C613.088135,74.904106 582.294128,74.904106 550.500244,74.904465 
M688.528198,177.872589 
	C688.129028,174.405746 687.335876,170.932358 687.393311,167.473083 
	C687.834656,140.871140 685.644348,114.187317 690.032654,87.020721 
	C679.062561,96.189125 667.806396,97.094780 654.977356,89.351471 
	C660.838196,108.897774 658.278870,127.935905 658.979919,146.807800 
	C659.692017,165.979630 656.627808,184.571152 650.874817,203.101715 
	C665.747314,203.101715 680.301636,203.101715 694.856201,203.101715 
	C692.770752,194.789429 690.753174,186.747696 688.528198,177.872589 
M688.923767,81.311150 
	C690.176147,78.550323 691.428589,75.789497 693.192749,71.900665 
	C678.804443,74.462608 665.882690,76.763428 652.738220,79.103897 
	C660.182373,93.225914 677.816284,94.291779 688.923767,81.311150 
M504.446075,75.039871 
	C496.974243,76.392227 489.502411,77.744583 481.929230,79.115288 
	C486.098755,88.139557 496.676514,92.571335 506.449188,89.702370 
	C514.898193,87.222023 521.479126,79.133621 520.455078,72.251701 
	C515.403320,73.143440 510.355560,74.034477 504.446075,75.039871 
z"/>
<path fill="#050505" opacity="1.000000" stroke="none" 
	d="
M125.666672,0.999999 
	C128.109421,1.632584 130.191544,2.382836 132.332458,2.879744 
	C156.401382,8.466143 173.295731,22.144993 180.891174,46.140980 
	C181.756714,48.875488 183.063324,49.645111 185.743088,49.935669 
	C213.851227,52.983368 230.508453,71.581024 230.524597,99.790588 
	C230.532043,112.798088 228.255630,125.314613 222.116714,136.927597 
	C211.567139,156.884232 189.264587,167.367935 168.868927,161.942169 
	C166.704361,161.366348 164.648666,160.381271 161.041229,159.019257 
	C163.713440,157.751068 165.006012,156.626236 166.334076,156.582611 
	C194.732483,155.650085 213.165131,139.262527 216.467697,111.121628 
	C217.250336,104.452606 216.929001,97.391991 215.652710,90.794487 
	C212.359436,73.770393 200.138733,63.760086 182.365036,62.730652 
	C181.597473,66.341896 180.996780,70.067398 180.004578,73.685539 
	C174.794937,92.683029 163.078064,106.211502 145.242279,114.432449 
	C143.688873,115.148453 141.566299,115.712410 140.067215,115.230316 
	C137.245438,114.322853 134.685760,112.600372 132.017105,111.216743 
	C133.976517,109.333145 135.780182,107.245384 137.927124,105.607620 
	C142.685623,101.977684 147.839233,98.842621 152.439606,95.032318 
	C175.998108,75.519806 178.609833,33.553188 137.649536,19.465313 
	C103.310287,7.654677 64.161339,28.478891 56.977333,63.014088 
	C72.020462,63.949501 83.299820,71.490265 91.736008,83.537308 
	C93.706505,86.351219 95.202599,89.614090 96.280396,92.880455 
	C96.727921,94.236702 95.995918,96.829758 94.905876,97.608658 
	C93.803841,98.396133 91.311798,98.165024 89.936592,97.429916 
	C87.785187,96.279884 86.013847,94.382309 84.167427,92.706726 
	C81.331505,90.133202 78.694748,87.327278 75.753410,84.885002 
	C60.216896,71.984589 41.761890,73.100052 28.106947,88.054527 
	C17.303419,99.886230 12.198587,114.006775 14.969312,129.922714 
	C19.040182,153.307083 30.108517,172.376373 51.559490,184.280090 
	C55.081455,186.234528 58.533852,186.223343 62.529758,185.786438 
	C74.509735,184.476517 86.569412,183.895508 98.941528,183.005295 
	C93.072617,160.399902 90.741173,136.816330 106.067642,114.104401 
	C123.111038,131.249008 131.578369,151.387787 132.231949,174.958344 
	C164.896759,166.016190 187.423767,173.406097 208.292145,200.045654 
	C197.081848,211.010635 184.504395,219.277542 168.207169,219.618057 
	C151.685532,219.963257 139.773422,210.853302 129.108459,198.823685 
	C127.680908,207.992508 126.981247,216.798721 124.823524,225.231903 
	C122.240463,235.327423 118.867470,245.288864 114.952026,254.949890 
	C112.604050,260.743317 108.712845,265.993408 102.132492,268.676788 
	C99.629440,269.000000 97.258888,269.000000 94.352753,268.642487 
	C89.985611,265.511200 90.132057,261.679535 91.616753,257.967041 
	C93.711945,252.727997 96.487556,247.763321 98.637955,242.543610 
	C102.744225,232.576355 106.961983,222.629623 110.417633,212.431793 
	C111.872505,208.138382 111.511375,203.229614 111.975769,198.600571 
	C85.486473,229.290359 54.495537,246.336426 12.838723,238.795685 
	C16.210094,216.014725 28.382629,201.128738 48.941647,193.056229 
	C48.761463,192.579086 48.750671,192.391815 48.664402,192.345657 
	C47.199680,191.562225 45.709961,190.824646 44.255909,190.022293 
	C21.974062,177.726944 6.540714,160.251633 2.147919,134.400497 
	C2.005027,133.559601 1.393220,132.798370 1.000000,132.000000 
	C1.000000,126.645073 1.000000,121.290138 1.378528,115.314377 
	C1.880754,113.875793 2.010247,113.058868 2.127309,112.240158 
	C5.406631,89.305145 16.095034,72.275368 39.561028,65.581474 
	C43.184101,64.547958 46.973484,64.097458 50.824566,63.350445 
	C50.923351,62.318111 51.004936,61.341141 51.111782,60.366940 
	C54.575832,28.782507 73.656006,8.269463 104.709961,2.653744 
	C106.191216,2.385877 107.572281,1.563920 109.000000,1.000000 
	C111.041664,1.000000 113.083336,1.000000 115.773926,1.340335 
	C118.948570,1.453780 121.474281,1.226890 124.000000,1.000000 
	C124.444443,1.000000 124.888893,1.000000 125.666672,0.999999 
z"/>
<path fill="#FDFDFD" opacity="1.000000" stroke="none" 
	d="
M1.000000,132.468658 
	C1.393220,132.798370 2.005027,133.559601 2.147919,134.400497 
	C6.540714,160.251633 21.974062,177.726944 44.255909,190.022293 
	C45.709961,190.824646 47.199680,191.562225 48.664402,192.345657 
	C48.750671,192.391815 48.761463,192.579086 48.941647,193.056229 
	C28.382629,201.128738 16.210094,216.014725 12.838723,238.795685 
	C54.495537,246.336426 85.486473,229.290359 111.975769,198.600571 
	C111.511375,203.229614 111.872505,208.138382 110.417633,212.431793 
	C106.961983,222.629623 102.744225,232.576355 98.637955,242.543610 
	C96.487556,247.763321 93.711945,252.727997 91.616753,257.967041 
	C90.132057,261.679535 89.985611,265.511200 93.908592,268.642487 
	C63.059067,269.000000 32.118137,269.000000 1.000000,269.000000 
	C1.000000,223.645920 1.000000,178.291626 1.000000,132.468658 
z"/>
<path fill="#FEFEFE" opacity="1.000000" stroke="none" 
	d="
M108.531342,1.000000 
	C107.572281,1.563920 106.191216,2.385877 104.709961,2.653744 
	C73.656006,8.269463 54.575832,28.782507 51.111782,60.366940 
	C51.004936,61.341141 50.923351,62.318111 50.824566,63.350445 
	C46.973484,64.097458 43.184101,64.547958 39.561028,65.581474 
	C16.095034,72.275368 5.406631,89.305145 2.127309,112.240158 
	C2.010247,113.058868 1.880754,113.875793 1.378528,114.846771 
	C1.000000,77.075027 1.000000,39.150051 1.000000,1.000000 
	C36.687244,1.000000 72.374962,1.000000 108.531342,1.000000 
z"/>
<path fill="#707070" opacity="1.000000" stroke="none" 
	d="
M123.555832,1.000000 
	C121.474281,1.226890 118.948570,1.453780 116.211426,1.340335 
	C118.370560,1.000000 120.741112,1.000000 123.555832,1.000000 
z"/>
<path fill="#050505" opacity="1.000000" stroke="none" 
	d="
M327.994324,83.991547 
	C311.948029,99.691559 296.153290,115.141991 280.358521,130.592422 
	C280.683685,131.137711 281.008850,131.682999 281.334015,132.228287 
	C287.561401,132.228287 293.796051,132.063110 300.011322,132.337067 
	C301.699097,132.411469 303.986084,133.359451 304.886627,134.670135 
	C319.880524,156.493011 334.699402,178.436172 349.541412,200.363297 
	C349.880188,200.863800 350.033783,201.489670 350.441681,202.454025 
	C334.331055,202.454025 318.610718,202.454025 302.789429,202.454025 
	C302.582245,202.044327 302.152039,201.602936 302.184631,201.198883 
	C303.352112,186.726593 296.505310,175.170471 288.554291,164.087112 
	C285.356628,159.629715 281.562836,155.602615 278.309845,151.181412 
	C275.516937,147.385559 272.144653,145.895386 267.085907,147.417267 
	C267.703674,165.814255 271.505615,183.764633 277.037537,201.855209 
	C262.543304,201.855209 248.356613,201.855209 234.720093,201.855209 
	C244.374756,160.068985 243.087173,118.221619 235.774170,75.966827 
	C248.308456,75.966827 261.532379,75.966827 273.825775,75.966827 
	C272.017487,85.764259 269.667389,95.531227 268.539398,105.437363 
	C267.395844,115.479980 267.459869,125.660110 266.994995,135.780014 
	C267.430420,136.125809 267.865845,136.471619 268.301270,136.817413 
	C269.710632,135.937500 271.669434,135.393784 272.445190,134.126114 
	C281.048676,120.066971 289.570770,105.954544 297.816498,91.684120 
	C298.913391,89.785797 298.803131,86.865295 298.458374,84.535599 
	C297.956604,81.144966 296.734100,77.861000 295.884644,74.770668 
	C309.367157,74.770668 322.578247,74.770668 335.789337,74.770668 
	C335.968445,75.158119 336.147552,75.545563 336.326630,75.933014 
	C333.633057,78.535995 330.939484,81.138985 327.994324,83.991547 
z"/>
<path fill="#040404" opacity="1.000000" stroke="none" 
	d="
M470.100464,188.747192 
	C470.794159,193.759918 471.453400,198.315247 472.187744,203.389847 
	C463.446167,203.389847 454.828857,203.564301 446.232788,203.214661 
	C444.833252,203.157730 443.272003,200.961716 442.217438,199.452591 
	C425.155975,175.037994 408.476562,150.348267 390.994293,126.240295 
	C384.538300,117.337593 376.229095,109.778809 368.765106,101.607079 
	C368.292633,101.865234 367.820190,102.123383 367.347717,102.381531 
	C367.347717,107.793816 367.347748,113.206093 367.347717,118.618378 
	C367.347656,129.781723 367.379425,140.945160 367.340240,152.108368 
	C367.275940,170.418167 373.100403,186.696442 384.134552,201.204132 
	C384.403931,201.558304 384.533783,202.018585 384.881226,202.750793 
	C374.542694,202.750793 364.485748,202.750793 353.859772,202.750793 
	C364.979401,160.024338 357.844696,117.225273 355.455444,74.125107 
	C367.587219,74.125107 380.235687,74.052490 392.880127,74.243721 
	C394.071350,74.261742 395.861115,75.698059 396.321381,76.884003 
	C402.905304,93.848999 414.033752,107.639832 426.272491,120.744591 
	C437.278687,132.529572 448.034851,144.548065 459.595581,157.224884 
	C459.747437,154.848495 459.909149,153.471130 459.911835,152.093491 
	C459.932495,141.430069 459.522125,130.748306 460.008179,120.107079 
	C460.918152,100.184601 455.500977,88.572495 444.973267,75.910706 
	C454.589630,75.910706 463.996460,75.910706 473.332764,75.910706 
	C473.493286,76.507263 473.726898,76.870224 473.632965,77.098259 
	C466.337158,94.807259 467.907104,113.451019 468.156464,131.874298 
	C468.411041,150.684631 469.399048,169.485031 470.100464,188.747192 
z"/>
<path fill="#060606" opacity="1.000000" stroke="none" 
	d="
M783.023804,138.000259 
	C783.023804,145.821091 783.023804,153.142044 783.023804,160.462982 
	C782.582153,160.862122 782.140442,161.261261 781.698792,161.660400 
	C781.281555,160.673248 781.086975,159.486038 780.409790,158.732483 
	C776.859924,154.782013 773.657043,150.278717 769.410278,147.271500 
	C765.994507,144.852737 761.342163,143.508606 757.098816,143.084061 
	C750.373779,142.411255 743.532043,142.904709 736.194946,142.904709 
	C736.731628,163.310593 736.732056,183.252289 743.288757,202.946884 
	C729.337463,202.946884 715.474182,202.946884 700.778320,202.946884 
	C707.538025,182.406372 709.300720,161.115799 708.270752,139.649506 
	C707.259216,118.568382 711.532898,97.002502 703.011719,76.221199 
	C736.805054,76.221199 770.668213,76.221199 804.422913,76.221199 
	C803.332275,89.324791 802.236816,102.486641 801.143372,115.623871 
	C800.757019,115.103249 800.084717,114.161766 799.376343,113.248253 
	C794.184875,106.553429 789.404175,99.481140 783.699585,93.255791 
	C772.953430,81.528763 759.009094,78.121315 743.623962,79.750526 
	C742.392090,79.880981 740.643372,81.421448 740.309265,82.631058 
	C738.985474,87.423492 737.401733,92.321167 737.240845,97.223366 
	C736.820801,110.021156 737.099426,122.841888 737.099426,135.563766 
	C756.091309,139.647995 771.458740,134.546906 783.023804,117.911240 
	C783.023804,124.440948 783.023804,130.970657 783.023804,138.000259 
z"/>
<path fill="#050505" opacity="1.000000" stroke="none" 
	d="
M849.478638,190.407318 
	C850.275330,186.399536 850.879333,182.783554 851.678711,179.211288 
	C854.346680,167.288666 853.149719,156.321442 847.259033,145.087769 
	C835.264709,122.214272 823.321350,99.380661 808.253113,78.330269 
	C807.789307,77.682335 807.410278,76.973724 806.741943,75.887527 
	C821.910400,75.887527 836.647339,75.887527 852.004272,75.887527 
	C850.364441,89.510162 854.854492,101.721680 860.924438,113.484360 
	C866.867188,125.000626 872.998779,136.419449 879.688049,149.094757 
	C889.422424,124.564407 898.972839,101.470024 888.578552,75.507492 
	C901.686096,75.507492 915.006287,75.507492 929.002808,75.507492 
	C927.841492,76.883575 926.890198,78.082748 925.864868,79.214844 
	C907.562866,99.423401 893.206482,122.076385 883.728210,147.693420 
	C882.669128,150.555603 882.005737,153.858063 882.260254,156.863037 
	C883.561218,172.221451 885.223877,187.549225 886.780212,203.090302 
	C874.344910,203.090302 860.811584,203.090302 846.833252,203.090302 
	C847.709045,198.863052 848.542297,194.841095 849.478638,190.407318 
z"/>
<path fill="#050505" opacity="1.000000" stroke="none" 
	d="
M551.000183,74.904282 
	C582.294128,74.904106 613.088135,74.904106 643.984985,74.904106 
	C642.055359,89.626938 640.184692,103.899834 638.352844,117.876793 
	C636.779480,113.275665 635.361267,108.045555 633.210571,103.136337 
	C630.955688,97.989326 628.490112,92.797462 625.234863,88.257370 
	C620.086853,81.077354 612.662598,78.222580 602.851807,79.431274 
	C600.974915,120.672676 597.322876,161.929184 606.691650,203.132446 
	C593.059570,203.132446 579.308411,203.132446 565.072876,203.132446 
	C566.567261,192.746658 568.178894,182.453979 569.509521,172.125092 
	C573.226318,143.273285 574.509766,114.389229 570.016968,85.488052 
	C569.001282,78.954613 567.625671,78.034676 561.032104,79.266899 
	C554.229736,80.538170 548.670898,84.288361 545.709717,90.284294 
	C541.335938,99.140633 538.027832,108.523285 534.628113,116.799896 
	C533.353210,104.021828 531.934021,89.798271 530.447998,74.904465 
	C536.997131,74.904465 543.748657,74.904465 551.000183,74.904282 
z"/>
<path fill="#050505" opacity="1.000000" stroke="none" 
	d="
M519.588196,85.566605 
	C519.781677,86.483795 520.173096,87.408287 520.139587,88.317123 
	C519.374756,109.074738 518.719177,129.838181 517.713440,150.584549 
	C516.848083,168.436279 519.167542,185.747040 525.791687,202.971130 
	C510.774353,202.971130 496.242950,202.971130 481.389191,202.971130 
	C492.757019,166.251495 489.986969,128.775040 486.997223,91.243774 
	C498.459839,96.857109 509.671906,96.186989 519.565063,85.860809 
	C519.706970,85.610054 519.588196,85.566605 519.588196,85.566605 
z"/>
<path fill="#030303" opacity="1.000000" stroke="none" 
	d="
M688.631897,178.289276 
	C690.753174,186.747696 692.770752,194.789429 694.856201,203.101715 
	C680.301636,203.101715 665.747314,203.101715 650.874817,203.101715 
	C656.627808,184.571152 659.692017,165.979630 658.979919,146.807800 
	C658.278870,127.935905 660.838196,108.897774 654.977356,89.351471 
	C667.806396,97.094780 679.062561,96.189125 690.032654,87.020721 
	C685.644348,114.187317 687.834656,140.871140 687.393311,167.473083 
	C687.335876,170.932358 688.129028,174.405746 688.631897,178.289276 
z"/>
<path fill="#F40C0C" opacity="1.000000" stroke="none" 
	d="
M688.715088,81.611427 
	C677.816284,94.291779 660.182373,93.225914 652.738220,79.103897 
	C665.882690,76.763428 678.804443,74.462608 693.192749,71.900665 
	C691.428589,75.789497 690.176147,78.550323 688.715088,81.611427 
z"/>
<path fill="#F40C0B" opacity="1.000000" stroke="none" 
	d="
M504.876923,74.982697 
	C510.355560,74.034477 515.403320,73.143440 520.455078,72.251701 
	C521.479126,79.133621 514.898193,87.222023 506.449188,89.702370 
	C496.676514,92.571335 486.098755,88.139557 481.929230,79.115288 
	C489.502411,77.744583 496.974243,76.392227 504.876923,74.982697 
z"/>
<path fill="#050505" opacity="1.000000" stroke="none" 
	d="
M519.757446,85.571846 
	C519.807861,85.533638 519.602844,85.684059 519.602844,85.684059 
	C519.602844,85.684059 519.706482,85.570580 519.647339,85.568588 
	C519.588196,85.566605 519.706970,85.610054 519.757446,85.571846 
z"/>
</svg>